#!OML:ASF H:\Pregnant\Project 1\Capture day 1\Session 1\femalepreg.ASF
:FULLY-SPECIFIED
:DEGREES
146
root 9.19909 14.5049 28.1599 231.29 -86.981 -212.462
lowerback -15.5638 -0.910131 -3.05246
upperback -6.20886 -1.09148 -0.467883
thorax 2.1754 -0.660835 1.04206
lowerneck -23.5401 5.17123 5.79354
upperneck 27.3895 4.03199 2.55906
head 13.2362 2.64627 0.742244
rclavicle -8.59433e-015 1.41137e-014
rhumerus -57.2805 -33.7965 -42.9927
rradius 22.3205
rwrist 4.39202
rhand -8.21763 -22.1361
rfingers 7.12502
rthumb 17.6994 -51.3506
lclavicle -8.59433e-015 1.41137e-014
lhumerus -46.8556 11.5419 68.1651
lradius 27.2212
lwrist 25.2227
lhand -22.0666 1.56472
lfingers 7.12502
lthumb 4.34446 31.5002
rfemur -23.0331 23.0465 -12.2193
rtibia 23.5052
rfoot -17.2168 -29.2014
rtoes -27.2962
lfemur -10.6515 -5.83049 1.01878
ltibia 2.06736e-014
lfoot -6.00466 14.7255
ltoes -24.768
147
root 9.19447 14.5047 28.1646 230.758 -86.9282 -211.965
lowerback -15.5846 -0.971345 -3.11289
upperback -6.17564 -1.16131 -0.438089
thorax 2.2257 -0.69477 1.09457
lowerneck -23.4641 5.23207 5.90094
upperneck 27.2079 4.11198 2.49863
head 13.1519 2.68354 0.710144
rclavicle 8.47941e-016 -1.76918e-014
rhumerus -56.7819 -32.6679 -45.1821
rradius 22.4498
rwrist 2.93536
rhand -7.43987 -22.0269
rfingers 7.12502
rthumb 18.4477 -51.1722
lclavicle 8.47941e-016 -1.76918e-014
lhumerus -47.15 10.7796 69.8844
lradius 28.0388
lwrist 27.2063
lhand -22.3733 2.36747
lfingers 7.12502
lthumb 4.04825 32.3088
rfemur -23.0735 22.8281 -12.1915
rtibia 23.6063
rfoot -17.0966 -28.9855
rtoes -27.415
lfemur -10.5623 -5.79784 0.966862
ltibia -2.06736e-014
lfoot -6.05726 14.7136
ltoes -24.644
148
root 9.18979 14.5043 28.1689 230.228 -86.8619 -211.481
lowerback -15.6073 -1.03596 -3.18984
upperback -6.13303 -1.23241 -0.405851
thorax 2.2874 -0.729142 1.15851
lowerneck -23.3942 5.29329 5.99515
upperneck 27.0316 4.19553 2.44266
head 13.071 2.72162 0.682907
rclavicle 2.58886e-015 2.5842e-015
rhumerus -56.1658 -31.3776 -47.5256
rradius 22.5575
rwrist 1.51811
rhand -6.67177 -21.8345
rfingers 7.12502
rthumb 19.1865 -50.9081
lclavicle 2.58886e-015 2.5842e-015
lhumerus -47.4217 10.0931 71.4733
lradius 28.8426
lwrist 28.886
lhand -23.1933 3.24117
lfingers 7.12502
lthumb 3.25643 33.196
rfemur -23.1187 22.6353 -12.1748
rtibia 23.7242
rfoot -17.0126 -28.7704
rtoes -27.4794
lfemur -10.4554 -5.76044 0.904308
ltibia 3.18055e-015
lfoot -6.12167 14.6996
ltoes -24.4792
149
root 9.1851 14.5036 28.1727 229.683 -86.7844 -210.992
lowerback -15.6301 -1.09996 -3.27712
upperback -6.08194 -1.30032 -0.37619
thorax 2.35834 -0.761892 1.22591
lowerneck -23.3376 5.35128 6.07781
upperneck 26.8698 4.27359 2.39745
head 12.9984 2.75765 0.661418
rclavicle 1.86205e-015 2.78299e-014
rhumerus -55.463 -29.9176 -50.0157
rradius 22.6557
rwrist 0.127103
rhand -5.94838 -21.5598
rfingers 7.12502
rthumb 19.882 -50.5628
lclavicle 1.86205e-015 2.78299e-014
lhumerus -47.6585 9.56154 72.8137
lradius 29.5925
lwrist 30.0692
lhand -24.5233 4.15279
lfingers 7.12502
lthumb 1.97198 34.1234
rfemur -23.1699 22.4645 -12.1649
rtibia 23.8609
rfoot -16.9579 -28.5565
rtoes -27.5096
lfemur -10.3312 -5.71824 0.835028
ltibia 1.59028e-015
lfoot -6.19852 14.6827
ltoes -24.2586
150
root 9.18048 14.5026 28.1758 229.282 -86.6882 -210.658
lowerback -15.6465 -1.15946 -3.38524
upperback -6.02583 -1.35865 -0.356739
thorax 2.43108 -0.789782 1.296
lowerneck -23.2964 5.39999 6.14938
upperneck 26.7277 4.33502 2.36838
head 12.9363 2.78754 0.645794
rclavicle 2.04562e-014 2.54444e-014
rhumerus -54.7283 -28.3136 -52.599
rradius 22.7574
rwrist -1.21179
rhand -5.26599 -21.2214
rfingers 7.12502
rthumb 20.5378 -50.155
lclavicle 2.04562e-014 2.54444e-014
lhumerus -47.8617 9.23735 73.816
lradius 30.2622
lwrist 30.6332
lhand -26.2603 4.95629
lfingers 7.12502
lthumb 0.294331 34.9358
rfemur -23.2259 22.3089 -12.173
rtibia 24.0168
rfoot -16.9237 -28.3436
rtoes -27.5196
lfemur -10.1901 -5.67387 0.745349
ltibia -3.81667e-014
lfoot -6.28127 14.6657
ltoes -24.0103
